<svg width="104" height="104" viewBox="0 0 104 104" fill="none" xmlns="http://www.w3.org/2000/svg">
<path d="M46.8 16.8997L20.8 36.3997C18.6333 38.0464 17.3333 40.6031 17.3333 43.3331V82.3331C17.3333 87.0997 21.2333 90.9997 26 90.9997H78C82.7666 90.9997 86.6666 87.0997 86.6666 82.3331V43.3331C86.6666 40.6031 85.3667 38.0464 83.2 36.3997L57.2 16.8997C54.1233 14.6031 49.8766 14.6031 46.8 16.8997ZM54.1666 54.1664C54.1666 57.7631 51.2633 60.6664 47.6666 60.6664V75.8331C47.6666 77.0464 46.7133 77.9997 45.5 77.9997C44.2866 77.9997 43.3333 77.0464 43.3333 75.8331V60.6664C39.7366 60.6664 36.8333 57.7631 36.8333 54.1664V43.3331C36.8333 42.1197 37.7866 41.1664 39 41.1664C40.2133 41.1664 41.1666 42.1197 41.1666 43.3331V54.1664H43.3333V43.3331C43.3333 42.1197 44.2866 41.1664 45.5 41.1664C46.7133 41.1664 47.6666 42.1197 47.6666 43.3331V54.1664H49.8333V43.3331C49.8333 42.1197 50.7866 41.1664 52 41.1664C53.2133 41.1664 54.1666 42.1197 54.1666 43.3331V54.1664ZM62.8333 77.9997C61.62 77.9997 60.6666 77.0464 60.6666 75.8331V62.8331H58.5C57.2866 62.8331 56.3333 61.8797 56.3333 60.6664V49.8331C56.3333 46.0197 58.8033 42.7697 62.2266 41.6431C63.57 41.1664 65 42.2497 65 43.7231V75.8331C65 77.0464 64.0466 77.9997 62.8333 77.9997Z" fill="black"/>
</svg>
