<svg width="83" height="59" viewBox="0 0 83 59" fill="none" xmlns="http://www.w3.org/2000/svg">
<path d="M12.45 24.9C17.028 24.9 20.75 21.178 20.75 16.6C20.75 12.022 17.028 8.3 12.45 8.3C7.87203 8.3 4.15 12.022 4.15 16.6C4.15 21.178 7.87203 24.9 12.45 24.9ZM70.55 24.9C75.128 24.9 78.85 21.178 78.85 16.6C78.85 12.022 75.128 8.3 70.55 8.3C65.972 8.3 62.25 12.022 62.25 16.6C62.25 21.178 65.972 24.9 70.55 24.9ZM74.7 29.05H66.4C64.1175 29.05 62.0555 29.9708 60.5511 31.4622C65.7775 34.3283 69.4866 39.5028 70.2906 45.65H78.85C81.1455 45.65 83 43.7955 83 41.5V37.35C83 32.772 79.278 29.05 74.7 29.05ZM41.5 29.05C49.5277 29.05 56.025 22.5527 56.025 14.525C56.025 6.49734 49.5277 0 41.5 0C33.4723 0 26.975 6.49734 26.975 14.525C26.975 22.5527 33.4723 29.05 41.5 29.05ZM51.46 33.2H50.3836C47.6861 34.4969 44.6903 35.275 41.5 35.275C38.3097 35.275 35.3269 34.4969 32.6164 33.2H31.54C23.2919 33.2 16.6 39.8919 16.6 48.14V51.875C16.6 55.3117 19.3883 58.1 22.825 58.1H60.175C63.6117 58.1 66.4 55.3117 66.4 51.875V48.14C66.4 39.8919 59.7081 33.2 51.46 33.2ZM22.4489 31.4622C20.9445 29.9708 18.8825 29.05 16.6 29.05H8.3C3.72203 29.05 0 32.772 0 37.35V41.5C0 43.7955 1.85453 45.65 4.15 45.65H12.6964C13.5134 39.5028 17.2225 34.3283 22.4489 31.4622Z" fill="black"/>
</svg>
