<svg width="66" height="59" viewBox="0 0 66 59" fill="none" xmlns="http://www.w3.org/2000/svg">
<path d="M9.42857 8.2473H56.5714C57.1221 8.24704 57.6722 8.28198 58.2185 8.3519C58.0333 7.05219 57.5869 5.80344 56.9061 4.68093C56.2253 3.55842 55.3242 2.58541 54.2572 1.82056C53.1901 1.05571 51.9793 0.514859 50.6976 0.230623C49.4159 -0.0536138 48.0899 -0.0753508 46.7996 0.166721L8.02901 6.78587H7.98482C5.55118 7.25126 3.38701 8.62817 1.93433 10.6354C4.12293 9.07867 6.74281 8.24383 9.42857 8.2473Z" fill="black"/>
<path d="M56.5714 11.783H9.42857C6.9288 11.7857 4.53219 12.7799 2.76458 14.5475C0.996971 16.3151 0.00272965 18.7118 0 21.2115V49.4972C0.00272965 51.997 0.996971 54.3936 2.76458 56.1612C4.53219 57.9288 6.9288 58.9231 9.42857 58.9258H56.5714C59.0712 58.9231 61.4678 57.9288 63.2354 56.1612C65.003 54.3936 65.9973 51.997 66 49.4972V21.2115C65.9973 18.7118 65.003 16.3151 63.2354 14.5475C61.4678 12.7799 59.0712 11.7857 56.5714 11.783ZM49.5737 40.0687C48.6413 40.0687 47.7298 39.7922 46.9545 39.2742C46.1793 38.7562 45.575 38.0199 45.2182 37.1585C44.8614 36.297 44.7681 35.3492 44.95 34.4347C45.1319 33.5202 45.5809 32.6802 46.2402 32.0209C46.8995 31.3616 47.7395 30.9126 48.6539 30.7307C49.5684 30.5488 50.5163 30.6421 51.3777 30.999C52.2392 31.3558 52.9754 31.96 53.4934 32.7353C54.0115 33.5105 54.2879 34.422 54.2879 35.3544C54.2879 36.6047 53.7913 37.8038 52.9072 38.6879C52.0231 39.572 50.824 40.0687 49.5737 40.0687Z" fill="black"/>
<path d="M0.0736694 31.1558V16.4973C0.0736694 13.3049 1.84153 7.95269 7.97746 6.79327C13.1853 5.81653 18.3415 5.81653 18.3415 5.81653C18.3415 5.81653 21.7299 8.17367 18.9308 8.17367C16.1317 8.17367 16.2054 11.783 18.9308 11.783C21.6563 11.783 18.9308 15.2451 18.9308 15.2451L7.95537 27.6938L0.0736694 31.1558Z" fill="black"/>
</svg>
